<svg xmlns="http://www.w3.org/2000/svg" width="682.667" height="682.667" preserveAspectRatio="none" version="1.0" viewBox="0 0 512 512"><path d="M132.5 8.6c-4.3 2.2-6.4 4.4-8.6 8.6-1.8 3.6-1.9 10.1-1.9 238.8 0 232.7 0 235.1 2 239 1.1 2.1 3.6 5.1 5.7 6.7l3.6 2.8h245.4l3.6-2.8c2.1-1.6 4.6-4.6 5.7-6.7 2-3.9 2-6.3 2-239s0-235.1-2-239c-1.1-2.1-3.6-5.1-5.7-6.7l-3.6-2.8-121.6-.3c-108.9-.2-121.9 0-124.6 1.4m226.3 100.1-.3 63.8h-205l-.3-63.8L153 45h206zm-90.1 210.5c4.2 1.5 7.5 3.8 11.9 8.2 7.5 7.5 10.4 14.3 10.4 24.6s-2.9 17.1-10.4 24.6S266.3 387 256 387s-17.1-2.9-24.6-10.4S221 362.3 221 352s2.9-17.1 10.4-24.6c7.6-7.6 13.9-10.3 24.3-10.3 5.1-.1 9 .5 13 2.1M352 457.5v6.5H160v-13h192z"/><path d="M167 80v22h178V58H167zm0 57.5V160h178v-45H167zM246.3 332c-8.5 4.3-12.7 11.9-12.1 21.6.5 7.4 3.7 13 10 17.1 3.6 2.4 5.1 2.8 11.8 2.8s8.2-.4 11.8-2.8c2.3-1.5 5.4-4.6 6.9-6.9 2.4-3.6 2.8-5.1 2.8-11.8s-.4-8.2-2.8-11.8c-4.3-6.5-9.7-9.6-17.6-10-5.2-.2-7.5.1-10.8 1.8"/></svg>