<?xml version="1.0" standalone="no"?>
<!DOCTYPE svg PUBLIC "-//W3C//DTD SVG 20010904//EN"
 "http://www.w3.org/TR/2001/REC-SVG-20010904/DTD/svg10.dtd">
<svg version="1.0" xmlns="http://www.w3.org/2000/svg"
 width="512.000000pt" height="512.000000pt" viewBox="0 0 512.000000 512.000000"
 preserveAspectRatio="none">

<g transform="translate(0.000000,512.000000) scale(0.100000,-0.100000)"
fill="#000000" stroke="none">
<path d="M1325 5034 c-43 -22 -64 -44 -86 -86 -18 -36 -19 -101 -19 -2388 0
-2327 0 -2351 20 -2390 11 -21 36 -51 57 -67 l36 -28 1227 0 1227 0 36 28 c21
16 46 46 57 67 20 39 20 63 20 2390 0 2327 0 2351 -20 2390 -11 21 -36 51 -57
67 l-36 28 -1216 3 c-1089 2 -1219 0 -1246 -14z m2263 -1001 l-3 -638 -1025 0
-1025 0 -3 638 -2 637 1030 0 1030 0 -2 -637z m-901 -2105 c42 -15 75 -38 119
-82 75 -75 104 -143 104 -246 0 -103 -29 -171 -104 -246 -75 -75 -143 -104
-246 -104 -103 0 -171 29 -246 104 -75 75 -104 143 -104 246 0 103 29 171 104
246 76 76 139 103 243 103 51 1 90 -5 130 -21z m833 -1383 l0 -65 -960 0 -960
0 0 65 0 65 960 0 960 0 0 -65z"/>
<path d="M1670 4320 l0 -220 890 0 890 0 0 220 0 220 -890 0 -890 0 0 -220z" fill="pass-as-props"/>
<path d="M1670 3745 l0 -225 890 0 890 0 0 225 0 225 -890 0 -890 0 0 -225z" fill="pass-as-props"/>
<path d="M2463 1800 c-85 -43 -127 -119 -121 -216 5 -74 37 -130 100 -171 36
-24 51 -28 118 -28 67 0 82 4 118 28 23 15 54 46 69 69 24 36 28 51 28 118 0
67 -4 82 -28 118 -43 65 -97 96 -176 100 -52 2 -75 -1 -108 -18z" fill="pass-as-props"/>
</g>
</svg>